<svg width="16" height="21" viewBox="0 0 16 21" fill="none" xmlns="http://www.w3.org/2000/svg">
<path d="M13.8267 6.91333H12.839V4.93809C12.839 2.21227 10.6268 0 7.90095 0C5.17512 0 2.96286 2.21227 2.96286 4.93809V6.91333H1.97524C0.888857 6.91333 0 7.80219 0 8.88857V18.7648C0 19.8511 0.888857 20.74 1.97524 20.74H13.8267C14.913 20.74 15.8019 19.8511 15.8019 18.7648V8.88857C15.8019 7.80219 14.913 6.91333 13.8267 6.91333ZM4.93809 4.93809C4.93809 3.29865 6.2615 1.97524 7.90095 1.97524C9.5404 1.97524 10.8638 3.29865 10.8638 4.93809V6.91333H4.93809V4.93809ZM13.8267 18.7648H1.97524V8.88857H13.8267V18.7648ZM7.90095 15.8019C8.98733 15.8019 9.87619 14.913 9.87619 13.8267C9.87619 12.7403 8.98733 11.8514 7.90095 11.8514C6.81457 11.8514 5.92571 12.7403 5.92571 13.8267C5.92571 14.913 6.81457 15.8019 7.90095 15.8019Z" fill="#A6A6A6"/>
</svg>
