<svg width="21" height="16" viewBox="0 0 21 16" fill="none" xmlns="http://www.w3.org/2000/svg">
<path d="M18.4751 0.039917H2.51503C1.41777 0.039917 0.529995 0.937672 0.529995 2.03493L0.52002 14.005C0.52002 15.1022 1.41777 16 2.51503 16H18.4751C19.5724 16 20.4701 15.1022 20.4701 14.005V2.03493C20.4701 0.937672 19.5724 0.039917 18.4751 0.039917ZM17.4776 14.005H3.51254C2.96391 14.005 2.51503 13.5561 2.51503 13.0075V4.02994L9.43772 8.35911C10.0861 8.76809 10.904 8.76809 11.5524 8.35911L18.4751 4.02994V13.0075C18.4751 13.5561 18.0262 14.005 17.4776 14.005ZM10.4951 7.02245L2.51503 2.03493H18.4751L10.4951 7.02245Z" fill="#A6A6A6"/>
</svg>
